<?xml version="1.0" encoding="UTF-8" standalone="no"?>
<!-- Created with Inkscape (http://www.inkscape.org/) -->

<svg
   width="339.49377mm"
   height="330.1604mm"
   viewBox="0 0 339.49377 330.1604"
   version="1.1"
   id="svg1"
   xml:space="preserve"
   inkscape:version="1.3.2 (091e20e, 2023-11-25, custom)"
   sodipodi:docname="kitchen-cut.svg"
   inkscape:export-filename="kitchen-cut-guide.png"
   inkscape:export-xdpi="300"
   inkscape:export-ydpi="300"
   xmlns:inkscape="http://www.inkscape.org/namespaces/inkscape"
   xmlns:sodipodi="http://sodipodi.sourceforge.net/DTD/sodipodi-0.dtd"
   xmlns="http://www.w3.org/2000/svg"
   xmlns:svg="http://www.w3.org/2000/svg"><sodipodi:namedview
     id="namedview1"
     pagecolor="#ffffff"
     bordercolor="#000000"
     borderopacity="0.25"
     inkscape:showpageshadow="2"
     inkscape:pageopacity="0.0"
     inkscape:pagecheckerboard="0"
     inkscape:deskcolor="#d1d1d1"
     inkscape:document-units="mm"
     inkscape:zoom="0.71385008"
     inkscape:cx="726.34299"
     inkscape:cy="688.51992"
     inkscape:window-width="1900"
     inkscape:window-height="1265"
     inkscape:window-x="2764"
     inkscape:window-y="63"
     inkscape:window-maximized="0"
     inkscape:current-layer="layer1" /><defs
     id="defs1"><linearGradient
       id="swatch59"
       inkscape:swatch="solid"><stop
         style="stop-color:#000000;stop-opacity:1;"
         offset="0"
         id="stop59" /></linearGradient><clipPath
       clipPathUnits="userSpaceOnUse"
       id="clipPath5"><path
         id="path48"
         style="stroke-width:0.1;stroke-linecap:square;paint-order:markers fill stroke;stop-color:#000000"
         d="M 438.25066,553.76374 H 1298.1212 V 755.15928 H 438.25066 Z"
         sodipodi:nodetypes="ccccc" /></clipPath><clipPath
       clipPathUnits="userSpaceOnUse"
       id="clipPath52"><path
         id="path52"
         style="stroke-width:0.1;stroke-linecap:square;paint-order:markers fill stroke;stop-color:#000000"
         d="m -880.82767,-187.29769 h 1640.84 v 73.28155 h -1640.84 z" /></clipPath><clipPath
       clipPathUnits="userSpaceOnUse"
       id="clipPath32"><path
         id="path32"
         style="stroke-width:0.0999999;stroke-linecap:square;paint-order:markers fill stroke;stop-color:#000000"
         d="m 1691.1994,-792.32001 h 1634.8919 v 92.82806 H 1691.1994 Z" /></clipPath><clipPath
       clipPathUnits="userSpaceOnUse"
       id="clipPath54"><path
         id="path54"
         style="stroke-width:0.0999999;stroke-linecap:square;paint-order:markers fill stroke;stop-color:#000000"
         d="m 1691.1994,-792.32001 h 1634.8919 v 92.82806 H 1691.1994 Z" /></clipPath></defs><g
     inkscape:label="Layer 1"
     inkscape:groupmode="layer"
     id="layer1"
     transform="translate(-273.52055,113.39504)"
     style="display:inline"><g
       id="g17"
       style="display:inline"><g
         id="g10"><g
           id="g9"><path
             id="path7-8"
             style="vector-effect:non-scaling-stroke;fill:none;stroke:#000000;stroke-width:0.331383;stroke-dasharray:none;stroke-opacity:1;-inkscape-stroke:hairline"
             d="m 339.10658,-101.148 c -15.46796,0.22105 -30.93894,0.28268 -46.4043,0.65233 -3.35225,0.17005 -6.76876,0.0903 -10.04389,0.911427 -1.80316,0.420656 -3.01649,2.108997 -3.19991,3.89804 -0.66853,4.486951 -0.51992,9.047403 -0.61985,13.571758 -0.0301,12.939746 -0.0781,25.881523 0.14217,38.819821 0.21233,7.206322 0.30244,14.567547 2.52891,21.495056 2.18704,6.545582 6.15335,12.2688656 9.50708,18.242498 2.79067,4.8519025 5.3676,9.9447618 6.77535,15.27096 2.13988,8.100625 2.2545,16.492816 2.32747,24.808213 -0.0323,16.860499 -0.86919,33.705554 -1.22362,50.560154 -0.78908,32.564273 -1.3712,65.134513 -1.61741,97.707563 0.0427,4.76396 -0.12985,9.55467 0.4311,14.29358 0.12834,1.4268 0.85868,2.89178 2.2963,3.37802 3.11068,1.09175 6.48744,0.95011 9.736,0.86107 3.62164,-0.27589 7.37407,-0.57039 10.70473,-2.13556 1.22884,-0.74236 2.40859,-1.56537 3.61553,-2.34349 -0.50587,-32.9812 -0.92644,-65.9646 -1.79927,-98.9388 -0.37661,-16.613478 -0.99504,-33.219962 -1.46236,-49.830755 -0.19474,-10.130104 -0.52262,-20.328593 0.51977,-30.389001 0.64382,-6.355929 2.36942,-12.6081649 5.28035,-18.3052053 3.40015,-6.9545545 7.95011,-13.2941217 11.12048,-20.3641667 3.03629,-6.839332 3.25548,-14.455106 3.52976,-21.811967 0.30416,-11.945807 0.37837,-23.896875 0.42802,-35.84615 -0.063,-6.441382 0.0493,-12.901042 -0.50642,-19.323308 -0.0941,-1.841072 -1.02074,-3.474489 -1.60365,-5.186977 -0.15412,0.002 -0.30823,0.003 -0.46234,0.005 z"
             sodipodi:nodetypes="cccccccccccccccccccccccccccc" /><path
             style="vector-effect:non-scaling-stroke;fill:#000000;stroke:#000000;stroke-width:0.264583;stroke-linecap:square;stroke-dasharray:none;stroke-opacity:1;-inkscape-stroke:hairline;paint-order:markers fill stroke"
             d="m 292.05269,173.38216 h 35.95234"
             id="path12" /></g><g
           id="g6"><path
             d="m 415.88604,-107.96638 c -2.67985,0.5474 -5.45396,0.80572 -8.02365,1.78085 -0.88304,0.50302 -0.60924,1.75004 -0.80485,2.61681 -0.70673,7.463547 -0.60539,15.010757 -1.28423,22.432627 -0.18395,0.93787 -0.11698,2.10199 -0.76323,2.84253 -0.63263,-0.64649 -0.5486,-1.76409 -0.71366,-2.62721 -0.57112,-6.28414 -0.21723,-12.70949 -0.95571,-19.02987 -0.19352,-1.095027 -0.34093,-2.759077 -1.71132,-2.934917 -1.76035,0.24899 -2.99288,1.73508 -4.25387,2.85199 -3.67714,3.770437 -6.95435,7.986947 -9.42823,12.645907 -1.65315,3.18225 -2.70851,6.6675 -2.96208,10.25116 -0.47463,6.31521 -0.64261,12.658 -0.53601,18.99052 0.15164,7.65633 1.3374,15.28924 3.64241,22.59646 2.63162,8.50064 6.17309,16.67831 9.24631,25.02245 2.89751,7.6048601 5.33002,15.5372001 6.32544,23.68068 1.36823,10.54794 1.47288,21.18086 1.63255,31.81708 0.18072,24.08134 -0.079,48.163165 -0.12683,72.244593 -0.0542,23.04773 -0.21597,46.09654 0.006,69.14375 0.12424,4.7787 0.0416,9.5856 0.65716,14.33305 0.10533,0.95785 0.56764,2.00819 1.63653,2.15513 3.34717,0.72081 6.81361,0.52419 10.21586,0.46714 4.45196,-0.22026 8.96202,-0.4303 13.29244,-1.56305 1.50003,-0.5223 2.86591,-1.362 4.30782,-2.0206 -0.0127,-8.83259 -0.0469,-17.66625 -0.39927,-26.49318 -0.96728,-28.694 -2.45206,-57.36693 -3.71986,-86.048483 -0.91398,-19.03554 -1.49842,-38.09012 -1.57183,-57.14819 0.013,-9.68496 0.0974,-19.47564 2.80211,-28.7864999 3.43416,-11.9834501 9.21943,-23.1134401 13.08423,-34.9477901 2.52275,-7.42055 4.1686,-15.15495 4.50905,-22.99699 0.45892,-9.67144 0.0715,-19.70598 -3.80833,-28.72363 -2.18186,-5.17201 -5.60773,-9.70922 -9.49452,-13.72029 -1.22228,-1.327037 -2.44458,-2.654047 -3.66679,-3.981157 -0.35848,7.468597 -0.47317,14.948677 -1.05433,22.385497 -0.18291,1.14687 -0.134,2.45302 -0.81215,3.43206 -0.54442,-0.32641 -0.48718,-1.23674 -0.63741,-1.82123 -0.53672,-5.03033 -0.45494,-10.0913 -0.61508,-15.17771 -0.15745,-2.99293 0.0234,-6.053327 -0.70633,-8.981007 -0.41591,-1.80321 -2.35729,-2.39594 -3.85617,-3.02447 -1.34236,-0.59148 -3.25196,-1.11106 -4.32863,0.23293 -1.28073,1.78149 -1.24796,4.11397 -1.48045,6.210687 -0.49326,7.0581 -0.21208,14.18244 -0.80003,21.18531 -0.16153,0.77605 -0.0775,1.81176 -0.6657,2.38579 -0.65532,-0.99491 -0.56687,-2.35581 -0.72753,-3.52535 -0.47851,-8.30352 -0.42299,-16.62697 -0.6244,-24.939947 -0.0198,-1.11681 -0.0381,-2.23365 -0.0595,-3.35042 -0.25523,0.0457 -0.51046,0.0913 -0.76568,0.13699 z"
             style="vector-effect:non-scaling-stroke;fill:none;stroke:#000000;stroke-width:0.331383;stroke-dasharray:none;stroke-opacity:1;-inkscape-stroke:hairline"
             id="path1-5-0"
             sodipodi:nodetypes="ccccccccccccccccccccccccccccccccccccccccccccccc" /><path
             style="vector-effect:non-scaling-stroke;fill:#000000;stroke:#000000;stroke-width:0.264583;stroke-linecap:square;stroke-dasharray:none;stroke-opacity:1;-inkscape-stroke:hairline;paint-order:markers fill stroke"
             d="m 402.50422,173.38216 h 35.95234"
             id="path13" /></g><g
           id="g4"><path
             d="m 525.18651,-103.30676 c -8.85678,0.46236 -17.51831,4.989705 -22.55392,12.357825 -3.65489,5.17087 -5.91045,11.25177 -6.75066,17.51481 -0.97633,6.86988 -0.87332,13.84224 -0.61737,20.75976 0.43149,9.99928 3.71942,19.55258 6.90331,28.94617 3.19526,9.38008 6.7118,18.6553098 9.97684,27.9964398 2.11635,6.0944602 2.76713,12.5927202 2.92621,18.9713102 0.31142,12.51937 -0.24075,25.03889 -0.59613,37.55158 -1.30204,38.252905 -2.92992,76.497985 -3.62989,114.768615 -0.0809,7.49838 -0.2893,15.00731 0.0875,22.49984 0.0683,1.15566 0.10609,2.57195 1.32079,3.14332 3.75012,2.28008 8.31924,2.22109 12.56202,2.15942 3.57367,-0.17221 7.2322,-0.3719 10.63121,-1.57925 1.98315,-0.86375 3.84792,-2.78664 3.66358,-5.09638 0.11034,-12.44088 -0.35915,-24.87802 -0.66057,-37.3136 -0.94481,-35.6666 -1.98704,-71.331105 -2.72524,-107.002765 -0.13902,-9.89436 -0.44217,-19.79657 -0.0605,-29.6887 0.14049,-4.48268 1.07595,-9.05702 2.55694,-13.2397698 3.81108,-10.9663804 8.51827,-21.5915002 12.81249,-32.3702502 3.55589,-8.98573 6.06744,-18.41724 6.96297,-28.05474 0.59958,-6.2867 0.82993,-12.61054 0.80461,-18.92506 10e-4,-3.81601 -0.91002,-7.55795 -2.24155,-11.11418 -1.94144,-5.65711 -5.00594,-11.09391 -9.72412,-14.88966 -4.83553,-4.07639 -10.86157,-6.812875 -17.19727,-7.317615 -1.4793,-0.13425 -2.96782,-0.15492 -4.45129,-0.0771 z m 1.96677,19.623685 c 0.69699,1.8946 0.55121,3.96536 0.69228,5.92723 0.19245,9.70585 0.19887,19.41775 -0.0189,29.12323 -0.14972,2.35803 -0.0343,4.7553 -0.72477,7.04678 -1.0376,0.0618 -0.95624,-1.22529 -0.97616,-1.93457 -0.33629,-10.18958 -0.10897,-20.38906 0.0868,-30.57971 0.1635,-3.0565 0.044,-6.09477 0.70412,-9.08668 0.0547,-0.14432 0.11021,-0.44566 0.23661,-0.49628 z m 12.0428,0 c 0.69699,1.8946 0.55123,3.96536 0.6923,5.92723 0.19244,9.70585 0.19885,19.41775 -0.0189,29.12323 -0.14972,2.35803 -0.0343,4.7553 -0.72475,7.04678 -1.05476,0.0593 -0.94495,-1.25274 -0.97912,-1.96635 -0.27156,-7.56071 -0.15494,-15.2767 -0.0569,-22.89736 0.12336,-5.1359 0.0657,-10.31305 0.58817,-15.3926 0.0992,-0.60516 0.15146,-1.36862 0.49915,-1.84093 z m -23.08265,0.99807 c 0.69938,1.84379 0.5505,3.87105 0.69228,5.78534 0.19251,9.47585 0.19911,18.95792 -0.019,28.43338 -0.14654,2.30367 -0.0391,4.64498 -0.72211,6.88045 -1.03593,0.0649 -0.96118,-1.21849 -0.97962,-1.92718 -0.33325,-9.93332 -0.11084,-19.87679 0.0898,-29.81108 0.15794,-2.98456 0.0441,-5.94816 0.70588,-8.88872 0.0506,-0.1409 0.1151,-0.42282 0.23291,-0.47219 z"
             style="vector-effect:non-scaling-stroke;fill:none;stroke:#000000;stroke-width:0.331383;stroke-dasharray:none;stroke-opacity:1;-inkscape-stroke:hairline"
             id="path1-8-0"
             sodipodi:nodetypes="ccccccccccccccccccccccccccsccccccsssccccccssccccccccc" /><path
             style="vector-effect:non-scaling-stroke;fill:#000000;stroke:#000000;stroke-width:0.264583;stroke-linecap:square;stroke-dasharray:none;stroke-opacity:1;-inkscape-stroke:hairline;paint-order:markers fill stroke"
             d="m 506.38912,173.38216 h 35.95234"
             id="path14" /></g><g
           id="g3"><path
             d="m 574.72023,206.12778 c -9.82826,-0.57182 -19.0664,-6.26799 -24.32038,-14.54112 -2.64174,-4.18327 -4.42371,-8.88263 -5.56167,-13.68574 -1.59335,-7.12652 -1.58549,-14.4859 -1.47373,-21.75114 0.10947,-6.84028 1.38749,-13.61633 3.49059,-20.11603 3.58936,-11.34365 8.51071,-22.20227 12.39229,-33.44445 1.91796,-5.441877 3.85868,-10.925384 4.63471,-16.670391 1.51961,-10.330824 1.42132,-20.783848 1.15091,-31.217112 -0.23996,-7.880954 -0.80048,-15.749011 -0.9111,-23.634495 -0.58689,-29.3023604 -0.73163,-58.611849 -0.79123,-87.919429 0.0253,-12.93412 -0.0545,-25.87219 0.30303,-38.802411 0.12011,-0.925 -0.0988,-2.0254 0.41025,-2.81883 1.69012,-0.93966 3.65417,-1.27941 5.52853,-1.687252 5.56351,-0.94523 11.321,-0.86195 16.85301,0.255002 1.96926,0.50273 4.22033,0.97948 5.5334,2.67104 0.58511,1.22743 0.27524,2.66886 0.35992,3.99125 -0.26013,17.044211 -1.38338,34.059161 -2.13565,51.08541 -1.19147,24.653651 -2.18048,49.3351923 -3.66958,73.962197 -0.75312,13.549244 -1.27453,27.118995 -1.21648,40.691099 0.0684,7.156504 0.28346,14.372931 2.40501,21.279808 2.77096,9.119264 7.36556,17.614594 10.87744,26.485954 4.72261,11.57134 8.36551,23.75229 8.99217,36.30277 0.36679,7.23859 0.0862,14.5348 -1.07241,21.69392 -0.96922,5.81107 -3.18828,11.48566 -6.96299,16.05855 -3.21982,3.8789 -6.89691,7.67292 -11.68218,9.54839 -4.13429,1.73992 -8.65299,2.54177 -13.13386,2.26301 z"
             style="vector-effect:non-scaling-stroke;fill:none;stroke:#000000;stroke-width:0.331383;stroke-dasharray:none;stroke-opacity:1;-inkscape-stroke:hairline"
             id="path1-2-6" /><path
             style="vector-effect:non-scaling-stroke;fill:#000000;stroke:#000000;stroke-width:0.264583;stroke-linecap:square;stroke-dasharray:none;stroke-opacity:1;-inkscape-stroke:hairline;paint-order:markers fill stroke"
             d="m 559.81079,-70.811638 h 35.95234"
             id="path15" /></g><g
           id="g5"><path
             d="m 466.93288,202.15082 c -5.25317,-0.13222 -10.53771,-0.0846 -15.7513,-0.80726 -2.384,-0.53353 -5.13979,-0.54344 -7.02803,-2.30435 -1.83602,-1.97472 -1.92086,-4.85837 -2.14997,-7.39872 -0.3683,-7.51301 -0.0545,-15.04019 -0.0256,-22.55834 0.20371,-11.72352 0.17516,-23.47579 1.32309,-35.15498 0.72099,-7.48437 2.44516,-14.87751 5.30383,-21.84006 3.92608,-9.96105 9.43417,-19.304654 12.34097,-29.659058 1.59256,-5.866657 1.98233,-11.953024 2.04915,-17.981091 -0.13803,-16.765901 -0.72967,-33.524239 -1.23152,-50.28221 -0.72828,-21.6174588 -1.43424,-43.237778 -2.54859,-64.839508 -0.11059,-2.468281 -0.34133,-4.9962 -0.60611,-7.442431 -0.45059,-9.048369 -0.45597,-18.114489 -0.4819,-27.172739 0.0865,-3.80123 -0.0918,-7.671211 0.77735,-11.398491 0.36327,-1.70683 1.6735,-3.17666 3.42472,-3.498132 4.40601,-0.98926 8.99113,-0.6417 13.43076,-0.072 3.10917,0.421622 6.21296,1.167602 8.96465,2.725272 0.80654,0.39305 1.61148,0.7894 2.41919,1.18006 -0.26642,30.974731 -0.31211,61.958911 -1.47811,92.9168999 -0.88338,20.2239061 -1.27842,40.4704141 -1.18688,60.7133951 0.1126,7.919914 0.1533,15.889561 2.12681,23.616455 1.8566,7.110087 5.04496,13.868711 7.98065,20.672428 3.74013,8.74772 7.42405,17.53831 10.37237,26.59145 2.11884,6.68882 2.07338,13.78165 2.49687,20.71626 0.57103,13.19297 1.26405,26.4162 0.57688,39.61734 -0.26518,3.51745 -0.40894,7.12608 -1.59625,10.47955 -0.32886,0.9665 -1.01521,1.92086 -2.13043,1.96038 -4.55567,0.71944 -9.18804,0.76446 -13.78849,0.9741 -7.8582,0.25632 -15.72232,0.32391 -23.58416,0.2458 z m -5.54316,-20.26215 c 1.08292,0.0794 2.42923,-0.1813 2.74823,-1.39866 0.91235,-2.72438 0.81449,-5.65913 0.97245,-8.49654 0.19646,-9.33218 0.15896,-18.66946 0.0352,-28.00253 -0.12374,-3.77665 -0.0616,-7.53461 -0.68917,-11.25125 -0.0936,-1.15727 -1.4684,-1.41426 -2.38561,-1.64216 -1.20898,-0.16316 -2.91758,-0.17995 -3.39152,1.22798 -0.95896,2.75033 -0.84904,5.72785 -1.01127,8.60119 -0.20081,9.3469 -0.14349,18.69846 -0.0684,28.04668 0.1285,3.65635 5e-5,7.37867 0.84505,10.96057 0.2001,1.07395 1.05941,2.01795 2.2161,1.93515 0.24299,0.006 0.48597,0.0141 0.72898,0.0196 z m 25.89828,-1.04455 c 1.06168,-0.1701 1.86239,-1.03062 1.94927,-2.10435 0.60358,-3.44687 0.54862,-7.02824 0.67749,-10.60372 0.15963,-10.55795 0.41248,-21.12278 0.0766,-31.67947 -0.12915,-1.76821 -0.0725,-3.5672 -0.6192,-5.29303 -1.0117,-1.10135 -3.04727,-1.6575 -4.22507,-0.54308 -0.93403,1.41787 -0.92912,3.15185 -1.11131,4.72184 -0.46024,7.61733 -0.17581,15.25481 -0.14581,22.88031 0.12795,6.27893 0.0455,12.61702 0.57522,18.83408 0.20437,1.31824 0.18459,3.18425 1.74974,3.64504 0.33461,0.14778 0.71141,0.20382 1.07305,0.14238 z"
             style="vector-effect:non-scaling-stroke;fill:none;stroke:#000000;stroke-width:0.331383;stroke-dasharray:none;stroke-opacity:1;-inkscape-stroke:hairline"
             id="path1-1-5"
             sodipodi:nodetypes="cccccccccccccccccccccccccccccccccccccccccccscccccccccss" /><path
             style="vector-effect:non-scaling-stroke;fill:#000000;stroke:#000000;stroke-width:0.264583;stroke-linecap:square;stroke-dasharray:none;stroke-opacity:1;-inkscape-stroke:hairline;paint-order:markers fill stroke"
             d="m 455.08414,-70.811638 h 35.95234"
             id="path16" /></g><g
           id="g8"><path
             d="m 384.05779,201.4035 c -11.74782,-0.33249 -23.69606,-2.93019 -33.78992,-9.14827 -6.55904,-4.04799 -12.20701,-9.92254 -14.98113,-17.20203 -3.22031,-7.74018 -3.52935,-16.40184 -2.10703,-24.58391 1.82678,-10.7034 5.80507,-20.89041 10.09745,-30.81422 2.63296,-6.22295 5.88705,-12.16229 7.72175,-18.67277 1.90068,-7.005764 1.81684,-14.262571 1.82265,-21.539168 -0.20059,-16.038261 -0.96393,-32.062762 -1.39175,-48.095563 -1.04806,-36.844247 -1.87904,-73.697247 -2.12737,-110.556347 0.0149,-6.0025 -0.14745,-12.02197 0.35396,-18.00922 0.1442,-1.17628 0.2795,-2.839642 1.72215,-3.109172 3.15503,-0.70622 6.43191,-0.46355 9.63817,-0.35455 4.38226,0.30185 8.82966,0.61918 13.05181,1.908442 1.6366,0.64512 3.23482,1.38739 4.85706,2.06899 -0.69556,15.354281 -1.26944,30.714081 -1.61374,46.080551 -0.79682,33.36143 -1.40966,66.728515 -1.63486,100.099027 0.0148,10.679914 -0.1691,21.365288 0.21038,32.040752 0.24749,6.374737 1.06832,12.901604 3.51289,18.883628 3.41509,8.4539 8.26301,16.21789 12.30935,24.36576 4.2782,9.00438 7.49259,18.5573 9.14402,28.39833 1.11496,8.36113 0.95859,16.8363 0.55892,25.24316 -0.39657,5.95768 -0.78869,11.971 -2.29223,17.7704 -0.51463,2.05043 -1.64788,4.41035 -3.95052,4.82788 -3.1021,0.5965 -6.29301,0.36028 -9.4358,0.4209 -0.55874,-0.007 -1.11748,-0.0151 -1.67621,-0.0226 z m -15.45775,-32.58629 c 3.20089,0.0573 6.27668,-1.49298 8.31836,-3.92571 1.67178,-1.94161 3.29032,-4.25115 3.4052,-6.89441 -0.2913,-2.99752 -2.27343,-5.55104 -4.45221,-7.49859 -4.35675,-3.74749 -11.52083,-4.14281 -15.92968,-0.26982 -3.68745,3.09049 -4.43823,8.94952 -1.76263,12.92306 2.23719,3.46665 6.30428,5.64672 10.42096,5.66547 z"
             style="vector-effect:non-scaling-stroke;fill:none;stroke:#000000;stroke-width:0.331383;stroke-dasharray:none;stroke-opacity:1;-inkscape-stroke:hairline"
             id="path1-7"
             sodipodi:nodetypes="cccccccccccccccccccccccccccccccc" /><path
             style="vector-effect:non-scaling-stroke;fill:#000000;stroke:#000000;stroke-width:0.264583;stroke-linecap:square;stroke-dasharray:none;stroke-opacity:1;-inkscape-stroke:hairline;paint-order:markers fill stroke"
             d="m 345.79589,-70.811638 h 35.95234"
             id="path17" /></g></g></g><g
       id="g7"
       transform="translate(418.39353,3.2231796)"><path
         id="rect3"
         style="fill:#000000;fill-opacity:1;stroke:#000000;stroke-width:0.396875"
         d="m 225.11029,-15.570109 v 4.44779 14.0844121 h 4.44779 V -11.122319 h 14.08441 v -4.44779 h -14.08441 z m 360.65809,0 v 4.44779 h 14.08441 V 2.9620931 h 4.44779 v -14.0844121 -4.44779 h -4.44779 z M 225.11029,235.17996 v 14.08441 4.44779 h 4.44779 14.08441 v -4.44779 h -14.08441 v -14.08441 z m 374.7425,0 v 14.08441 h -14.08441 v 4.44779 h 14.08441 4.44779 v -4.44779 -14.08441 z" /><path
         id="path7-3"
         style="vector-effect:non-scaling-stroke;fill:none;stroke:#000000;stroke-width:0.264583;stroke-dasharray:none;stroke-opacity:1;-inkscape-stroke:hairline"
         d="m 381.94922,-5.2285156 c -2.13965,0.4370523 -4.35456,0.6433102 -6.40625,1.421875 -0.70504,0.4016196 -0.48643,1.3972668 -0.64261,2.0893163 -0.56427,5.9590541 -0.48336,11.9849023 -1.02536,17.9106833 -0.14687,0.748816 -0.0934,1.678274 -0.60938,2.269532 -0.5051,-0.516168 -0.43801,-1.40848 -0.5698,-2.097617 -0.45599,-5.017392 -0.17344,-10.1475269 -0.76306,-15.19385 -0.15451,-0.87430046 -0.2722,-2.2029122 -1.36635,-2.343299 -1.4055,0.19878834 -2.38958,1.38531818 -3.39638,2.2770849 -2.93591,3.0104034 -5.5525,6.3769485 -7.5277,10.0967621 -1.31991,2.540775 -2.16253,5.323476 -2.36499,8.184747 -0.37895,5.042191 -0.51307,10.10641 -0.42796,15.162432 0.12107,6.112976 1.06781,12.20725 2.90818,18.041486 2.10114,6.787093 4.92872,13.316316 7.38245,19.978453 2.31343,6.071886 4.2556,12.405229 5.05036,18.90716 1.09243,8.421701 1.17598,16.91125 1.30347,25.40343 0.14429,19.22705 -0.0631,38.4545 -0.10127,57.68162 -0.0433,18.40179 -0.17243,36.80445 0.005,55.20583 0.0992,3.81542 0.0332,7.65335 0.52469,11.44381 0.0841,0.76476 0.45322,1.60338 1.30664,1.7207 2.67245,0.57551 5.44013,0.41852 8.15656,0.37297 3.55454,-0.17586 7.15547,-0.34356 10.61297,-1.24797 1.19765,-0.41702 2.2882,-1.08744 3.43945,-1.61328 -0.0101,-7.05213 -0.0374,-14.10511 -0.31878,-21.15272 -0.7723,-22.9099 -1.95778,-45.80297 -2.97002,-68.70293 -0.72974,-15.19838 -1.19637,-30.41196 -1.25498,-45.62833 0.0104,-7.732679 0.0778,-15.549767 2.23726,-22.983755 2.74191,-9.567838 7.36099,-18.454258 10.44673,-27.903054 2.01422,-5.924718 3.3283,-12.100028 3.60012,-18.36128 0.36641,-7.721881 0.0571,-15.733671 -3.04065,-22.933559 -1.74204,-4.1294378 -4.47733,-7.7520415 -7.58063,-10.9545646 -0.97589,-1.05954134 -1.9518,-2.11905829 -2.92764,-3.1786362 -0.28622,5.9630801 -0.37779,11.9353338 -0.8418,17.8730468 -0.14604,0.915689 -0.10699,1.958544 -0.64844,2.740234 -0.43467,-0.260612 -0.38897,-0.987441 -0.50892,-1.454113 -0.42853,-4.016319 -0.36323,-8.0571049 -0.49109,-12.118203 -0.12571,-2.3896203 0.0187,-4.83310892 -0.56395,-7.1706196 -0.33207,-1.4397226 -1.88211,-1.9129757 -3.07885,-2.4148011 -1.07177,-0.4722532 -2.59643,-0.8871067 -3.45607,0.1859736 -1.02256,1.4223749 -0.9964,3.28467129 -1.18202,4.9587417 -0.39383,5.6353326 -0.16933,11.3235614 -0.63876,16.9147994 -0.12897,0.619612 -0.0619,1.446546 -0.53151,1.904863 -0.52322,-0.794352 -0.4526,-1.880924 -0.58088,-2.81471 -0.38205,-6.629712 -0.33772,-13.2753241 -0.49853,-19.9125838 -0.0158,-0.8916834 -0.0304,-1.7833908 -0.0475,-2.6750498 -0.20378,0.036458 -0.40756,0.072917 -0.61133,0.109375 z m 123.57422,3.4980468 c -7.07144,0.3691583 -13.98699,3.9838992 -18.00753,9.8667489 -2.91814,4.1285319 -4.71903,8.9836569 -5.38987,13.9841979 -0.77952,5.485056 -0.69728,11.051944 -0.49292,16.575035 0.34451,7.983631 2.96966,15.611186 5.51175,23.111224 2.55116,7.48925 5.35884,14.894796 7.96572,22.352947 1.68974,4.865946 2.20933,10.054299 2.33635,15.147099 0.24864,9.995727 -0.19222,19.991577 -0.47597,29.981977 -1.03957,30.54193 -2.33931,61.0776 -2.89818,91.63368 -0.0646,5.98686 -0.23098,11.98215 0.0699,17.96435 0.0545,0.9227 0.0847,2.0535 1.05454,2.50969 2.99418,1.82046 6.64226,1.77336 10.02979,1.72412 2.85329,-0.1375 5.77434,-0.29693 8.48818,-1.26091 1.58339,-0.68963 3.07226,-2.2249 2.92508,-4.06905 0.0881,-9.93306 -0.28675,-19.86314 -0.52741,-29.79197 -0.75436,-28.47696 -1.5865,-56.95225 -2.17589,-85.43326 -0.111,-7.89986 -0.35304,-15.806 -0.0483,-23.704082 0.11217,-3.57907 0.85906,-7.23132 2.04152,-10.570911 3.04284,-8.755791 6.80116,-17.239115 10.22976,-25.845096 2.8391,-7.174388 4.84437,-14.704709 5.55938,-22.399491 0.47872,-5.019436 0.66264,-10.068515 0.64242,-15.110167 10e-4,-3.046782 -0.72658,-6.03443 -1.7897,-8.873795 -1.55009,-4.516759 -3.99685,-8.8576129 -7.76394,-11.8882158 -3.86079,-3.25467141 -8.67211,-5.4395454 -13.73067,-5.8425424 -1.1811,-0.1071937 -2.36957,-0.1236909 -3.554,-0.061579 z m 62.16601,0.1015626 c -7.84709,0.4565492 -15.22302,5.0044997 -19.41791,11.6099352 -2.10922,3.340007 -3.53198,7.092075 -4.44055,10.926979 -1.27217,5.689971 -1.26589,11.565856 -1.17666,17.366576 0.0874,5.461413 1.1078,10.871559 2.78696,16.061054 2.86582,9.057002 6.79513,17.726749 9.89427,26.702759 1.53134,4.344911 3.08085,8.723058 3.70045,13.309996 1.21329,8.248357 1.13481,16.594277 0.91891,24.924417 -0.19159,6.29233 -0.63912,12.57435 -0.72744,18.8703 -0.46859,23.39563 -0.58415,46.79693 -0.63174,70.19672 0.0202,10.32687 -0.0435,20.6569 0.24195,30.98066 0.0959,0.73854 -0.0789,1.61712 0.32755,2.25061 1.34943,0.75024 2.91757,1.0215 4.4141,1.34713 4.44202,0.75469 9.03892,0.6882 13.4558,-0.2036 1.5723,-0.40139 3.3696,-0.78203 4.41798,-2.1326 0.46717,-0.98001 0.21976,-2.13088 0.28737,-3.1867 -0.20769,-13.60846 -1.10452,-27.19355 -1.70515,-40.78766 -0.95129,-19.68399 -1.74094,-39.39025 -2.92987,-59.05298 -0.60131,-10.81801 -1.01761,-21.6524 -0.97126,-32.48866 0.0546,-5.713906 0.22632,-11.47566 1.92021,-16.990257 2.21239,-7.281014 5.88082,-14.063881 8.68478,-21.146957 3.77063,-9.238804 6.6792,-18.964321 7.17954,-28.984885 0.29285,-5.779433 0.0688,-11.604893 -0.85624,-17.320884 -0.77384,-4.639678 -2.54559,-9.170394 -5.5594,-12.8214903 -2.57077,-3.096981 -5.50664,-6.1262076 -9.3273,-7.62362603 -3.3009,-1.38919137 -6.90873,-2.02940427 -10.48635,-1.80683687 z M 283.50977,0.3046875 c -12.34995,0.17648709 -24.70231,0.22569704 -37.05018,0.52083081 -2.67651,0.13577549 -5.40432,0.0720977 -8.01926,0.72770489 -1.43968,0.3358609 -2.40843,1.6838676 -2.55487,3.1122781 -0.53377,3.5824767 -0.41512,7.2236387 -0.4949,10.8359797 -0.024,10.331368 -0.0624,20.664357 0.11351,30.994569 0.16953,5.753681 0.24147,11.631039 2.01913,17.162109 1.74618,5.226132 4.91297,9.795723 7.59066,14.565198 2.22813,3.873862 4.2856,7.940109 5.40958,12.192659 1.70853,6.467711 1.80004,13.168214 1.8583,19.807404 -0.0258,13.46178 -0.69398,26.91123 -0.97696,40.3683 -0.63002,26.00001 -1.0948,52.00478 -1.29138,78.01179 0.0341,3.80365 -0.10367,7.62865 0.3442,11.4123 0.10247,1.13919 0.68559,2.30886 1.83342,2.69708 2.48363,0.87168 5.17971,0.75859 7.77343,0.6875 2.89159,-0.22028 5.88761,-0.45541 8.54688,-1.70508 0.98113,-0.59271 1.92307,-1.24982 2.88672,-1.87109 -0.4039,-26.33289 -0.73969,-52.66754 -1.43658,-78.99484 -0.30069,-13.26455 -0.79446,-26.52352 -1.16758,-39.78593 -0.15548,-8.08809 -0.41727,-16.23078 0.415,-24.263223 0.51404,-5.074709 1.89179,-10.066627 4.21594,-14.615265 2.71475,-5.552664 6.34754,-10.614309 8.87883,-16.259183 2.42424,-5.460668 2.59924,-11.541264 2.81823,-17.415138 0.24285,-9.537786 0.3021,-19.079772 0.34174,-28.620327 -0.0503,-5.142936 0.0394,-10.3004661 -0.40433,-15.4281394 -0.0751,-1.4699506 -0.81498,-2.7741054 -1.28039,-4.14139335 -0.12305,0.001302 -0.2461,0.002604 -0.36914,0.003906 z m 156.28515,0.23828125 c -4.19424,0.10556808 -8.41353,0.0675614 -12.57617,0.64453125 -1.90344,0.4259844 -4.10372,0.4339012 -5.61133,1.8398438 -1.46592,1.5766615 -1.53366,3.8790288 -1.71658,5.907294 -0.29406,5.9985462 -0.0435,12.0084092 -0.0204,18.0110562 0.16264,9.360302 0.13985,18.743557 1.05638,28.06847 0.57565,5.975681 1.95227,11.878522 4.23469,17.437568 3.13467,7.953124 7.53244,15.41326 9.85329,23.680439 1.27154,4.684069 1.58274,9.543549 1.63609,14.356489 -0.11021,13.38626 -0.58259,26.76648 -0.98327,40.14641 -0.58148,17.25984 -1.14513,34.52195 -2.03485,51.76923 -0.0883,1.97073 -0.27253,3.98907 -0.48393,5.94219 -0.35976,7.22441 -0.36406,14.46299 -0.38476,21.69529 0.0691,3.03498 -0.0733,6.12486 0.62065,9.1008 0.29004,1.36277 1.33616,2.5363 2.73437,2.79297 3.51785,0.78985 7.17871,0.51235 10.7234,0.0575 2.48243,-0.33663 4.96056,-0.93223 7.15757,-2.1759 0.64396,-0.31382 1.28664,-0.63028 1.93153,-0.94219 -0.21271,-24.73088 -0.24919,-49.4693 -1.18015,-74.18681 -0.70531,-16.1472 -1.02072,-32.31245 -0.94763,-48.47488 0.0899,-6.32343 0.1224,-12.68657 1.69809,-18.855888 1.48235,-5.676852 4.028,-11.073085 6.37192,-16.505313 2.9862,-6.984374 5.92752,-14.002972 8.28152,-21.231185 1.69173,-5.340501 1.65543,-11.003563 1.99355,-16.540306 0.45593,-10.533534 1.00925,-21.091243 0.4606,-31.631309 -0.21173,-2.8084066 -0.32651,-5.6896134 -1.27448,-8.3670966 -0.26257,-0.7716728 -0.81057,-1.5336578 -1.70098,-1.565206 C 465.99669,0.94254914 462.29811,0.9066036 458.62501,0.73921993 452.35086,0.53456623 446.07198,0.48059854 439.79492,0.54296875 Z M 335.64844,1.2675781 C 326.26873,1.533044 316.729,3.607102 308.66985,8.5717483 c -5.23688,3.2319987 -9.74634,7.9223687 -11.96125,13.7344677 -2.57117,6.179924 -2.81791,13.095578 -1.6823,19.628311 1.45854,8.545826 4.63489,16.679346 8.06202,24.602724 2.10221,4.968532 4.70034,9.71063 6.16521,14.908748 1.51754,5.593553 1.4506,11.387539 1.45524,17.197334 -0.16016,12.805297 -0.76962,25.599607 -1.1112,38.400537 -0.8368,29.41724 -1.50027,58.84146 -1.69854,88.27055 0.0119,4.79252 -0.11773,9.59859 0.28261,14.37894 0.11513,0.93917 0.22316,2.26722 1.375,2.48242 2.51904,0.56386 5.13537,0.37011 7.69532,0.28308 3.49889,-0.241 7.04979,-0.49437 10.42084,-1.52373 1.3067,-0.51508 2.58275,-1.10772 3.87798,-1.65193 -0.55535,-12.25918 -1.01355,-24.52277 -1.28844,-36.79169 -0.6362,-26.63647 -1.12551,-53.27746 -1.30531,-79.9212 0.0118,-8.52708 -0.13501,-17.05851 0.16797,-25.582029 0.1976,-5.089731 0.85297,-10.300919 2.80477,-15.077102 2.72668,-6.749779 6.59736,-12.948712 9.82804,-19.454148 3.41581,-7.189284 5.98225,-14.816539 7.30078,-22.673828 0.89021,-6.675704 0.76536,-13.442457 0.44626,-20.154673 -0.31663,-4.756734 -0.62971,-9.557899 -1.83017,-14.1882654 -0.41089,-1.6371043 -1.3157,-3.5213125 -3.15418,-3.8546761 -2.47678,-0.4762608 -5.02447,-0.2876542 -7.53374,-0.3360551 -0.44611,0.00601 -0.89222,0.01203 -1.33832,0.018045 z M 507.09375,13.9375 c 0.55649,1.51269 0.4401,3.166029 0.55273,4.732422 0.15366,7.749355 0.15878,15.503544 -0.0151,23.252602 -0.11954,1.882704 -0.0274,3.796739 -0.57867,5.626304 -0.82844,0.04936 -0.76348,-0.978297 -0.77939,-1.544607 -0.2685,-8.135571 -0.087,-16.279042 0.0693,-24.415483 0.13054,-2.440373 0.0351,-4.866198 0.56218,-7.255 0.0437,-0.115226 0.088,-0.355821 0.18892,-0.396238 z m 9.61523,0 c 0.55649,1.51269 0.44011,3.166029 0.55274,4.732422 0.15365,7.749355 0.15877,15.503544 -0.0151,23.252602 -0.11954,1.882704 -0.0274,3.796739 -0.57866,5.626304 -0.84214,0.04734 -0.75447,-1.000217 -0.78175,-1.569975 -0.21682,-6.036633 -0.12371,-12.197245 -0.0454,-18.28173 0.0985,-4.100624 0.0525,-8.234165 0.46961,-12.28979 0.0792,-0.483171 0.12093,-1.092736 0.39853,-1.469833 z m -18.42968,0.796875 c 0.5584,1.472122 0.43953,3.090733 0.55273,4.619141 0.1537,7.565718 0.15897,15.136406 -0.0152,22.701814 -0.117,1.8393 -0.0312,3.708646 -0.57655,5.493498 -0.82711,0.05179 -0.76743,-0.972871 -0.78215,-1.538702 -0.26607,-7.930971 -0.0885,-15.870045 0.0717,-23.801796 0.1261,-2.382935 0.0352,-4.749136 0.56359,-7.096944 0.0404,-0.112499 0.0919,-0.33759 0.18596,-0.377011 z m -62.91016,1.986328 c 0.86463,-0.06342 1.93955,0.144747 2.19425,1.116713 0.72844,2.175207 0.6503,4.518369 0.77642,6.783824 0.15686,7.451007 0.12692,14.906081 0.0281,22.357803 -0.0988,3.015356 -0.0492,6.015786 -0.55025,8.983235 -0.0747,0.923986 -1.1724,1.129176 -1.90472,1.311131 -0.96528,0.130276 -2.32946,0.143677 -2.70786,-0.98044 -0.76566,-2.195922 -0.67789,-4.573242 -0.80742,-6.867371 -0.16033,-7.462765 -0.11457,-14.929247 -0.0546,-22.393057 0.1026,-2.919309 4e-5,-5.891284 0.67471,-8.751153 0.15976,-0.857461 0.84585,-1.611171 1.76938,-1.54506 0.19401,-0.005 0.38801,-0.01123 0.58203,-0.01563 z m 20.67774,0.833985 c 0.84767,0.135813 1.48697,0.822871 1.55634,1.680163 0.48191,2.752051 0.43803,5.611489 0.54092,8.466233 0.12745,8.429677 0.32933,16.864866 0.0612,25.293549 -0.10312,1.411774 -0.0579,2.848131 -0.49438,4.22607 -0.80777,0.87934 -2.43301,1.323377 -3.37339,0.4336 -0.74575,-1.13205 -0.74183,-2.516502 -0.88729,-3.770012 -0.36747,-6.081841 -0.14037,-12.179766 -0.11642,-18.268125 0.10216,-5.013221 0.0363,-10.07369 0.45927,-15.037518 0.16317,-1.052515 0.14738,-2.542375 1.39703,-2.910278 0.26716,-0.117988 0.568,-0.162738 0.85674,-0.113682 z m -132.74024,9.730468 c 2.55566,-0.04574 5.01144,1.192033 6.64156,3.134373 1.33478,1.550222 2.62706,3.394211 2.71878,5.504647 -0.23258,2.39328 -1.81515,4.432068 -3.55474,5.987029 -3.47852,2.992074 -9.19847,3.307709 -12.71859,0.215435 -2.94414,-2.467513 -3.54358,-7.145488 -1.40732,-10.318046 1.78622,-2.767853 5.03347,-4.508462 8.32031,-4.523438 z" /></g></g></svg>
